<?xml version="1.0" standalone="no"?><!DOCTYPE svg PUBLIC "-//W3C//DTD SVG 1.1//EN" "http://www.w3.org/Graphics/SVG/1.1/DTD/svg11.dtd"><svg t="1650518242235" class="icon" viewBox="0 0 1024 1024" version="1.1" xmlns="http://www.w3.org/2000/svg" p-id="18361" data-spm-anchor-id="a313x.7781069.0.i33" xmlns:xlink="http://www.w3.org/1999/xlink" width="200" height="200"><defs><style type="text/css"></style></defs><path d="M412.097561 724.292683h199.804878c151.726829 0 274.731707 123.004878 274.731707 274.731707H137.365854c0-151.726829 123.004878-274.731707 274.731707-274.731707z" fill="#C2E8FF" p-id="18362" data-spm-anchor-id="a313x.7781069.0.i34" class="selected"></path><path d="M611.902439 714.302439h-199.804878C254.851122 714.302439 127.37561 841.777951 127.37561 999.02439c0 5.494634 4.49561 9.990244 9.990244 9.990244h749.268292a9.990244 9.990244 0 0 0 9.990244-10.115122l-0.099902-7.217951C892.553366 837.482146 766.376585 714.302439 611.902439 714.302439z m0 19.980488l7.168 0.099902c137.965268 3.671415 250.005854 113.014634 257.198829 250.555317l0.149854 4.096H147.555902l0.17483-4.295805C155.148488 845.174634 270.685659 734.282927 412.097561 734.282927h199.804878z" fill="#7496C4" p-id="18363"></path><path d="M512 499.512195a124.878049 124.878049 0 0 1 124.878049 124.878049v99.902439l-124.878049 99.902439-124.878049-99.902439v-99.902439a124.878049 124.878049 0 0 1 124.878049-124.878049z" fill="#FBD998" p-id="18364"></path><path d="M512 489.521951a134.868293 134.868293 0 0 0-134.868293 134.868293v99.902439a9.990244 9.990244 0 0 0 3.746342 7.79239l124.878049 99.902439a9.990244 9.990244 0 0 0 12.487804 0l124.878049-99.902439A9.990244 9.990244 0 0 0 646.868293 724.292683v-99.902439a134.868293 134.868293 0 0 0-134.868293-134.868293z m5.244878 20.105366A114.887805 114.887805 0 0 1 626.887805 624.390244v95.082146l-114.887805 91.910244-114.887805-91.885268V624.390244a114.887805 114.887805 0 0 1 114.887805-114.887805l5.244878 0.124878z" fill="#967A44" p-id="18365"></path><path d="M474.012098 351.00722c45.905171-8.241951 112.86478-60.241171 137.340878-101.251122 21.179317 13.636683 75.476293 52.648585 75.476292 101.251122v157.546146c0 69.756878-66.435122 138.165073-119.458341 163.84-16.109268 7.817366-25.175415 26.923707-64.187317 26.923707-39.036878 0-57.543805-26.024585-67.134439-32.218536-65.585951-29.596098-114.887805-91.111024-123.854049-158.545171v-57.818537c0-32.568195 59.441951-81.370537 161.816976-99.727609z" fill="#FBD998" p-id="18366" data-spm-anchor-id="a313x.7781069.0.i32" class=""></path><path d="M602.761366 244.636098c-24.001561 40.235707-89.162927 89.112976-130.522537 96.530731-97.529756 17.482927-170.033951 66.185366-170.033951 109.568v57.818537c9.415805 71.580098 60.366049 136.366829 129.723317 167.661268l7.242927 6.568586c3.271805 2.872195 6.94322 5.994146 9.240976 7.742439 15.809561 11.988293 33.192585 18.781659 54.746536 18.781658 23.227317 0 37.912976-5.544585 53.272976-17.083317l8.216975-6.318829c2.797268-2.097951 4.970146-3.496585 7.093074-4.49561 65.685854-31.843902 125.077854-106.046439 125.077853-172.856195v-157.546146c0-43.40761-33.617171-79.722146-80.071805-109.642927a9.990244 9.990244 0 0 0-13.986341 3.271805z m11.413854 19.006439l2.647414 1.848195c35.290537 24.97561 60.01639 54.49678 60.01639 85.516488v157.546146c0 58.118244-54.371902 126.076878-113.813853 154.84878a54.197073 54.197073 0 0 0-6.743415 3.946147l-3.571512 2.522536c-1.523512 1.148878-6.993171 5.419707-8.266927 6.368781-12.113171 9.091122-22.727805 13.08722-41.284683 13.087219-16.808585 0-30.120585-5.194927-42.683317-14.735609-3.87122-2.922146-16.234146-14.11122-19.006439-15.884488-64.561951-29.246439-110.99161-88.263805-119.383415-151.477073l0.099903-56.49483c0-30.620098 64.462049-73.927805 153.6-89.912195 43.957073-7.867317 107.395122-53.697561 137.740488-96.206049l0.649366-0.974048z" fill="#967A44" p-id="18367"></path><path d="M331.676098 82.594341c158.72-118.734049 281.050537-23.102439 302.779317 14.136196 60.765659 0 110.716878 24.301268 152.151414 82.794146 54.097171 81.495415 9.490732 225.654634 0 278.827707-15.98439 89.687415 23.676878 121.05678 75.051708 171.40761-77.149659 65.436098-185.294049 45.955122-261.419708 22.328195C644.370732 619.220293 686.829268 564.323902 686.829268 508.553366v-157.546146c0-48.602537-54.296976-87.614439-75.476292-101.251122-24.476098 41.009951-91.435707 93.009171-137.365854 101.251122C371.637073 369.364293 312.195122 418.166634 312.195122 450.734829v57.818537c8.167024 61.564878 49.95122 118.15961 107.070439 150.103414-102.300098 26.723902-179.624585 17.108293-231.948488-28.89678 23.676878-23.601951 43.857171-58.517854 60.490927-104.747707 14.96039-50.950244-99.602732-291.889951 83.843122-442.417952z" fill="#A7714E" p-id="18368" data-spm-anchor-id="a313x.7781069.0.i31" class=""></path><path d="M325.681951 74.602146C268.962341 121.106732 236.269268 178.300878 223.032195 245.010732c-10.914341 54.89639-8.791415 108.044488 2.647415 178.300878l11.813463 69.557073c3.546537 22.403122 2.647415 22.802732 0.749268 29.321366-16.009366 44.356683-35.465366 78.023805-57.96839 100.451902a9.990244 9.990244 0 0 0 0.449561 14.585756c55.171122 48.52761 135.842341 58.567805 241.064586 31.069659a9.990244 9.990244 0 0 0 2.347707-18.382049c-55.296-30.919805-94.407805-85.241756-102.025366-142.710634l0.074927-56.494829 0.124878-2.247805c3.022049-30.695024 66.584976-72.054634 153.450146-87.66439l5.169951-1.073952c43.63239-10.314927 103.424-54.247024 132.620488-95.157073l0.624391-0.949073 2.647414 1.848195c35.290537 24.97561 60.01639 54.49678 60.01639 85.516488v157.546146l-0.174829 5.91922c-2.497561 45.155902-36.114732 95.157073-82.419512 129.623414a9.990244 9.990244 0 0 0 3.022049 17.532878c111.016585 34.466341 202.477268 33.767024 270.860488-24.251317a9.990244 9.990244 0 0 0 0.524487-14.760585l-18.332097-17.832585c-6.743415-6.618537-11.813463-11.738537-16.483903-16.683708-36.389463-38.712195-47.578537-70.855805-37.388487-128l4.54556-21.878634c3.146927-14.635707 6.843317-31.544195 7.717464-35.740097 7.96722-38.51239 12.68761-70.705951 13.886439-102.025366 1.998049-51.549659-6.193951-94.133073-27.672976-126.451512l-4.745366-6.493659c-39.761171-53.02322-88.163902-78.748098-148.430048-80.671219l-1.798244-0.024976-2.072976-2.947122c-18.731707-24.97561-57.443902-51.125073-100.951414-62.364098-65.685854-16.983415-137.790439-1.873171-211.243708 53.098147z m206.248586-33.767024c43.082927 11.139122 80.821073 38.537366 93.908292 60.940488a9.990244 9.990244 0 0 0 8.616586 4.94517c59.541854 0 105.646829 24.451122 144.009365 78.573269 18.581854 28.022634 26.024585 66.659902 24.176391 114.388292-1.048976 26.673951-4.745366 54.296976-11.03922 86.465561l-2.472585 12.288c-1.373659 6.618537-10.789463 49.351805-12.362927 58.168196-11.363902 63.71278 1.998049 102.100293 42.533463 145.183219l6.119025 6.368781 17.033366 16.833561 4.096 3.971121-2.497561 1.873171c-56.894439 40.935024-131.846244 42.408585-222.682537 17.058342l2.422634-2.048c41.384585-36.564293 70.281366-84.617366 72.828878-130.547513l0.199805-6.468682v-157.845854c0-43.382634-33.617171-79.697171-80.071805-109.642927a9.990244 9.990244 0 0 0-13.986341 3.296781c-24.001561 40.235707-89.162927 89.112976-130.522537 96.530731-94.657561 16.983415-165.66322 63.188293-169.834146 105.846634l-0.199805 3.24683v58.293073l1.048976 6.968195c9.041171 53.223024 40.885073 102.250146 86.290731 135.79239l4.320781 3.096976-5.244878 1.123902c-79.272585 16.084293-140.68761 7.492683-184.819512-25.300292l-1.898147-1.473561 2.197854-2.44761c20.629854-24.076488 38.28761-56.744585 53.098146-97.90439l2.272781-7.317854c1.24878-4.745366 1.198829-9.540683-1.498537-26.873756l-10.489756-61.714732c-12.862439-74.35239-15.834537-128.424585-4.870244-183.570732 12.412878-62.339122 42.708293-115.387317 95.406829-158.595122 68.308293-51.125073 134.193951-64.936585 193.910635-49.501658z" fill="#7A4F35" p-id="18369"></path><path d="M637.702244 724.292683l-2.44761 137.365854-122.830049-36.864-122.855024 36.864L387.121951 724.292683l125.302634 98.304L637.702244 724.292683z" fill="#C2E8FF" p-id="18370"></path><path d="M631.533268 716.425366l-119.133658 93.483707-119.133659-93.483707a9.990244 9.990244 0 0 0-16.134244 8.042146l2.44761 137.365854 0.224781 1.923122a9.990244 9.990244 0 0 0 12.637658 7.492683l119.982829-36.039805 119.957854 36.014829a9.990244 9.990244 0 0 0 12.862439-9.390829l2.44761-137.365854a9.990244 9.990244 0 0 0-16.15922-8.042146z m-234.071414 28.672l95.656585 75.026732-93.783415 28.147512-1.87317-103.174244z m229.875512 0l-1.848195 103.174244-93.783415-28.147512 95.63161-75.026732z" fill="#7496C4" p-id="18371"></path><path d="M512 899.121951l74.926829-132.295805L512 799.219512l-74.926829-32.393366z" fill="#4E7AB6" p-id="18372"></path><path d="M512 799.219512l74.926829 199.804878h-149.853658z" fill="#4E7AB6" p-id="18373"></path></svg>